<svg width="28" height="28" viewBox="0 0 28 28" fill="none" xmlns="http://www.w3.org/2000/svg">
<path d="M27.3333 19.5867C27.3333 24.44 24.44 27.3333 19.5866 27.3333H18C17.2666 27.3333 16.6666 26.7333 16.6666 26V18.3067C16.6666 17.9467 16.9599 17.64 17.3199 17.64L19.6666 17.6C19.8533 17.5867 20.0133 17.4534 20.0533 17.2667L20.52 14.72C20.56 14.48 20.3733 14.2533 20.12 14.2533L17.2799 14.2933C16.9066 14.2933 16.6133 14 16.6 13.64L16.5466 10.3733C16.5466 10.16 16.7199 9.97335 16.9466 9.97335L20.1466 9.92001C20.3733 9.92001 20.5466 9.74669 20.5466 9.52003L20.4933 6.31999C20.4933 6.09333 20.32 5.92001 20.0933 5.92001L16.4933 5.97335C14.28 6.01335 12.52 7.82667 12.56 10.04L12.6266 13.7067C12.64 14.08 12.3466 14.3734 11.9733 14.3867L10.3733 14.4133C10.1466 14.4133 9.97331 14.5867 9.97331 14.8133L10.0133 17.3467C10.0133 17.5734 10.1866 17.7467 10.4133 17.7467L12.0133 17.72C12.3866 17.72 12.6799 18.0133 12.6933 18.3733L12.8133 25.9734C12.8266 26.72 12.2266 27.3333 11.4799 27.3333H8.41329C3.55996 27.3333 0.666626 24.44 0.666626 19.5733V8.41334C0.666626 3.56 3.55996 0.666672 8.41329 0.666672H19.5866C24.44 0.666672 27.3333 3.56 27.3333 8.41334V19.5867Z" fill="#656565"/>
</svg>
