<svg width="28" height="28" viewBox="0 0 28 28" fill="none" xmlns="http://www.w3.org/2000/svg">
<path d="M19.5866 0.666672H8.41329C3.55996 0.666672 0.666626 3.56 0.666626 8.41334V19.5733C0.666626 24.44 3.55996 27.3333 8.41329 27.3333H19.5733C24.4266 27.3333 27.32 24.44 27.32 19.5867V8.41334C27.3333 3.56 24.44 0.666672 19.5866 0.666672ZM14 19.1733C11.1466 19.1733 8.82663 16.8533 8.82663 14C8.82663 11.1467 11.1466 8.82667 14 8.82667C16.8533 8.82667 19.1733 11.1467 19.1733 14C19.1733 16.8533 16.8533 19.1733 14 19.1733ZM21.8933 7.17334C21.8266 7.33334 21.7333 7.48001 21.6133 7.61334C21.48 7.73334 21.3333 7.82667 21.1733 7.89334C21.0133 7.96001 20.84 8.00001 20.6666 8.00001C20.3066 8.00001 19.9733 7.86667 19.72 7.61334C19.6 7.48001 19.5066 7.33334 19.44 7.17334C19.3733 7.01334 19.3333 6.84001 19.3333 6.66667C19.3333 6.49334 19.3733 6.32 19.44 6.16001C19.5066 5.98667 19.6 5.85334 19.72 5.72001C20.0266 5.41334 20.4933 5.26667 20.92 5.36001C21.0133 5.37334 21.0933 5.40001 21.1733 5.44001C21.2533 5.46667 21.3333 5.50667 21.4133 5.56001C21.48 5.60001 21.5466 5.66667 21.6133 5.72001C21.7333 5.85334 21.8266 5.98667 21.8933 6.16001C21.96 6.32 22 6.49334 22 6.66667C22 6.84001 21.96 7.01334 21.8933 7.17334Z" fill="#656565"/>
</svg>
